<?xml version="1.0" standalone="no"?><!DOCTYPE svg PUBLIC "-//W3C//DTD SVG 1.1//EN" "http://www.w3.org/Graphics/SVG/1.1/DTD/svg11.dtd"><svg t="1635870401720" class="icon" viewBox="0 0 1024 1024" version="1.1" xmlns="http://www.w3.org/2000/svg" p-id="3692" xmlns:xlink="http://www.w3.org/1999/xlink" width="200" height="200"><defs><style type="text/css"></style></defs><path d="M512 511.991895m-499.841753 0a499.841753 499.841753 0 1 0 999.683506 0 499.841753 499.841753 0 1 0-999.683506 0Z" fill="#FF1A1A" p-id="3693"></path><path d="M12.158247 511.991895a499.841753 382.838887 0 1 0 999.683506 0 499.841753 382.838887 0 1 0-999.683506 0Z" fill="#D60909" p-id="3694"></path><path d="M12.158247 511.991895c0 276.081372 223.784698 499.849858 499.841753 499.849858s499.841753-223.768487 499.841753-499.849858H12.158247z" fill="#FFFFFF" p-id="3695" data-spm-anchor-id="a313x.7781069.0.i18" class=""></path><path d="M512 894.830782c276.057055 0 499.841753-171.415074 499.841753-382.838887H12.158247c0 211.423813 223.784698 382.838887 499.841753 382.838887z" fill="#D8E5EA" p-id="3696"></path><path d="M512 0C229.677395 0 0 229.677395 0 511.991895c0 282.322605 229.677395 512.008105 512 512.008105s512-229.6855 512-512.008105C1024 229.677395 794.322605 0 512 0z m0 24.316494c264.83094 0 480.882993 212.226257 487.375497 475.517153H24.624503C31.117007 236.542752 247.16906 24.316494 512 24.316494z m0 975.367012c-264.83094 0-480.882993-212.234363-487.375497-475.533364h974.750994c-6.492504 263.299001-222.544556 475.533364-487.375497 475.533364z" fill="#33363A" p-id="3697"></path><path d="M512 558.209445m-135.880571 0a135.880571 135.880571 0 1 0 271.761142 0 135.880571 135.880571 0 1 0-271.761142 0Z" fill="#A7BBC1" p-id="3698"></path><path d="M512 512m-135.880571 0a135.880571 135.880571 0 1 0 271.761142 0 135.880571 135.880571 0 1 0-271.761142 0Z" fill="#FFFFFF" p-id="3699"></path><path d="M415.917425 608.082575c-53.066696-53.066696-53.058591-139.090348 0-192.173255 53.066696-53.058591 139.098453-53.058591 192.157044 0" fill="#D8E5EA" p-id="3700"></path><path d="M512 660.046923c-39.53862 0-76.71854-15.400446-104.682508-43.364415-57.711147-57.711147-57.711147-151.629553 0-209.365016 57.727358-57.711147 151.637659-57.711147 209.356911 0a147.114791 147.114791 0 0 1 43.37252 104.690613c0 39.53862-15.400446 76.71854-43.37252 104.682509a147.058052 147.058052 0 0 1-104.674403 43.356309z m0-271.712508a123.317048 123.317048 0 0 0-87.482641 36.174838c-48.227714 48.25203-48.227714 126.745674 0 174.981494a122.911774 122.911774 0 0 0 87.482641 36.239682 122.879352 122.879352 0 0 0 87.474536-36.239682 122.919879 122.919879 0 0 0 36.247787-87.482642c0-33.046116-12.871531-64.11449-36.247787-87.490746a123.284626 123.284626 0 0 0-87.474536-36.182944z" fill="#33363A" p-id="3701"></path><path d="M558.233761 558.225656c-25.524214 25.499897-66.927098 25.499897-92.4351 0a65.362737 65.362737 0 1 1 92.4351 0z" fill="#FFFFFF" p-id="3702"></path><path d="M465.798661 465.798661A65.354631 65.354631 0 0 1 558.233761 558.225656" fill="#D8E5EA" p-id="3703"></path><path d="M512.008105 589.472351a77.277819 77.277819 0 0 1-54.809378-22.646762c-30.225403-30.233508-30.225403-79.409565 0-109.626862a76.953599 76.953599 0 0 1 54.801273-22.711606c20.709548 0 40.178954 8.073076 54.817484 22.711606 30.217297 30.209192 30.217297 79.385249 0.008105 109.618757l-0.008105 0.008105a77.285925 77.285925 0 0 1-54.809379 22.646762z m-0.008105-130.668735a52.815426 52.815426 0 0 0-37.609511 15.586873 53.253123 53.253123 0 0 0 0 75.235233c20.733864 20.725759 54.493264 20.725759 75.243339 0a53.277439 53.277439 0 0 0-0.008106-75.235233 52.912692 52.912692 0 0 0-37.625722-15.586873z" fill="#33363A" p-id="3704"></path></svg>