<?xml version="1.0" standalone="no"?><!DOCTYPE svg PUBLIC "-//W3C//DTD SVG 1.1//EN" "http://www.w3.org/Graphics/SVG/1.1/DTD/svg11.dtd"><svg t="1690692419721" class="icon" viewBox="0 0 1024 1024" version="1.1" xmlns="http://www.w3.org/2000/svg" p-id="36281" xmlns:xlink="http://www.w3.org/1999/xlink" width="200" height="200"><path d="M857 305.903c0 29.532-23.94 53.472-53.473 53.472H294.472c-29.532 0-53.472-23.94-53.472-53.472v-27.806c0-29.532 23.94-53.472 53.472-53.472h509.055c29.532 0 53.473 23.94 53.473 53.472v27.806z" fill="#1296db" opacity=".4" p-id="36282" data-spm-anchor-id="a313x.7781069.0.i26" class="selected"></path><path d="M843.989 944H224.011c-41.771 0-75.753-33.983-75.753-75.754V165.753c0-41.771 33.982-75.753 75.753-75.753H843.99c41.771 0 75.753 33.983 75.753 75.753v702.493C919.742 910.017 885.76 944 843.989 944zM224.011 130c-19.714 0-35.753 16.039-35.753 35.753v702.493c0 19.715 16.039 35.754 35.753 35.754H843.99c19.714 0 35.753-16.039 35.753-35.754V165.753c0-19.714-16.039-35.753-35.753-35.753H224.011z" fill="#1296db" p-id="36283" data-spm-anchor-id="a313x.7781069.0.i23" class="selected"></path><path d="M775 337H299c-38.598 0-70-31.402-70-70v-26c0-38.598 31.402-70 70-70h476c38.598 0 70 31.402 70 70v26c0 38.598-31.402 70-70 70zM299 211c-16.542 0-30 13.458-30 30v26c0 16.542 13.458 30 30 30h476c16.542 0 30-13.458 30-30v-26c0-16.542-13.458-30-30-30H299z" fill="#1296db" p-id="36284" data-spm-anchor-id="a313x.7781069.0.i25" class="selected"></path><path d="M394.109 585.137c-17.209 0-29.229-12.44-29.229-30.254v-36.055h-36.055c-18.014 0-30.596-11.878-30.596-28.887 0-17.209 12.441-29.229 30.254-29.229h36.396V425c0-21.256 14.62-30.938 28.203-30.938 17.411 0 29.57 12.441 29.57 30.254v36.396h36.396c18.014 0 30.596 11.878 30.596 28.887 0 17.209-12.441 29.229-30.254 29.229h-36.738v35.713c0.002 21.022-14.795 30.596-28.543 30.596zM728.176 810.446c-5.429 0.001-13.579-1.678-21.576-9.674l-25.978-25.978-25.252 25.253c-8.267 8.268-16.522 10.004-21.991 10.004-5.143 0-12.757-1.484-19.828-8.555-6.164-6.164-9.33-13.941-8.912-21.898 0.267-5.068 2.155-12.68 9.637-20.162l25.495-25.494-25.495-25.494c-5.9-5.901-9.208-12.489-9.83-19.583-0.722-8.214 2.341-16.196 8.623-22.479 7.396-7.396 15.223-8.948 20.486-8.948 5.429 0 13.578 1.679 21.574 9.675l25.735 25.735 25.253-25.254c6.819-6.818 14.339-10.276 22.35-10.276 7.175 0 14.088 2.963 19.468 8.343 7.874 7.874 9.3 16.155 9.109 21.716-0.178 5.195-1.987 12.984-9.593 20.589l-25.734 25.735 25.736 25.735c12.737 12.738 13.234 30.034 1.209 42.061-7.396 7.396-15.223 8.948-20.486 8.949zM366.606 803.395a24.921 24.921 0 0 1-17.678-7.322c-9.763-9.764-9.763-25.593 0-35.355l350.257-350.257c9.764-9.763 25.592-9.763 35.355 0 9.763 9.763 9.763 25.592 0 35.355L384.284 796.072a24.922 24.922 0 0 1-17.678 7.323z" fill="#888988" p-id="36285"></path></svg>