<?xml version="1.0" standalone="no"?><!DOCTYPE svg PUBLIC "-//W3C//DTD SVG 1.1//EN" "http://www.w3.org/Graphics/SVG/1.1/DTD/svg11.dtd"><svg t="1693381547240" class="icon" viewBox="0 0 1024 1024" version="1.1" xmlns="http://www.w3.org/2000/svg" p-id="1539" xmlns:xlink="http://www.w3.org/1999/xlink" width="200" height="200"><path d="M358.4 443.733333h-102.4c-10.24 0-17.066667-6.826667-17.066667-17.066666v-273.066667c0-10.24 6.826667-17.066667 17.066667-17.066667h102.4C402.773333 136.533333 443.733333 180.906667 443.733333 225.28c0 27.306667-13.653333 47.786667-30.72 64.853333 20.48 13.653333 30.72 37.546667 30.72 64.853334 0 44.373333-40.96 88.746667-85.333333 88.746666zM273.066667 409.6h85.333333c23.893333 0 51.2-27.306667 51.2-54.613333S389.12 307.2 361.813333 307.2H273.066667v102.4z m0-136.533333h88.746666c27.306667 0 47.786667-20.48 47.786667-47.786667 0-27.306667-27.306667-54.613333-51.2-54.613333H273.066667v102.4z" fill="#d4237a" p-id="1540"></path><path d="M290.133333 170.666667c-10.24 0-17.066667-6.826667-17.066666-17.066667v-34.133333c0-10.24 6.826667-17.066667 17.066666-17.066667s17.066667 6.826667 17.066667 17.066667v34.133333c0 10.24-6.826667 17.066667-17.066667 17.066667zM358.4 170.666667c-10.24 0-17.066667-6.826667-17.066667-17.066667v-34.133333c0-10.24 6.826667-17.066667 17.066667-17.066667s17.066667 6.826667 17.066667 17.066667v34.133333c0 10.24-6.826667 17.066667-17.066667 17.066667zM290.133333 477.866667c-10.24 0-17.066667-6.826667-17.066666-17.066667v-34.133333c0-10.24 6.826667-17.066667 17.066666-17.066667s17.066667 6.826667 17.066667 17.066667v34.133333c0 10.24-6.826667 17.066667-17.066667 17.066667zM358.4 477.866667c-10.24 0-17.066667-6.826667-17.066667-17.066667v-34.133333c0-10.24 6.826667-17.066667 17.066667-17.066667s17.066667 6.826667 17.066667 17.066667v34.133333c0 10.24-6.826667 17.066667-17.066667 17.066667zM51.2 836.266667c-3.413333 0-6.826667 0-10.24-3.413334-6.826667-6.826667-10.24-17.066667-3.413333-23.893333l51.2-68.266667c3.413333-6.826667 13.653333-6.826667 20.48-6.826666l85.333333 34.133333c10.24 3.413333 13.653333 13.653333 10.24 23.893333s-13.653333 13.653333-20.48 10.24l-71.68-30.72L68.266667 829.44c-6.826667 3.413333-10.24 6.826667-17.066667 6.826667z" fill="#d4237a" p-id="1541"></path><path d="M324.266667 972.8c-122.88 0-221.866667-92.16-238.933334-218.453333 0-10.24 6.826667-17.066667 13.653334-20.48 10.24 0 17.066667 6.826667 20.48 13.653333 13.653333 109.226667 98.986667 191.146667 204.8 191.146667 10.24 0 17.066667 6.826667 17.066666 17.066666s-6.826667 17.066667-17.066666 17.066667z" fill="#d4237a" p-id="1542"></path><path d="M904.533333 273.066667h-6.826666l-85.333334-34.133334c-10.24-3.413333-13.653333-13.653333-10.24-23.893333s13.653333-13.653333 20.48-10.24l71.68 30.72 44.373334-58.026667c6.826667-6.826667 17.066667-10.24 23.893333-3.413333 6.826667 6.826667 10.24 17.066667 3.413333 23.893333l-51.2 68.266667c0 3.413333-3.413333 6.826667-10.24 6.826667z" fill="#d4237a" p-id="1543"></path><path d="M904.533333 273.066667c-6.826667 0-17.066667-6.826667-17.066666-13.653334C877.226667 170.666667 819.2 68.266667 699.733333 68.266667c-10.24 0-17.066667-6.826667-17.066666-17.066667s6.826667-17.066667 17.066666-17.066667c116.053333 0 204.8 85.333333 221.866667 218.453334 0 10.24-6.826667 20.48-17.066667 20.48z" fill="#d4237a" p-id="1544"></path><path d="M307.2 614.4c-170.666667 0-307.2-136.533333-307.2-307.2s136.533333-307.2 307.2-307.2 307.2 136.533333 307.2 307.2v27.306667c0 6.826667-6.826667 13.653333-13.653333 13.653333-126.293333 27.306667-225.28 126.293333-252.586667 252.586667 0 6.826667-6.826667 13.653333-13.653333 13.653333H307.2zM307.2 34.133333C157.013333 34.133333 34.133333 157.013333 34.133333 307.2s122.88 273.066667 273.066667 273.066667h10.24c30.72-129.706667 133.12-232.106667 262.826667-262.826667V307.2c0-150.186667-122.88-273.066667-273.066667-273.066667z" fill="#d4237a" p-id="1545"></path><path d="M665.6 1024C467.626667 1024 307.2 863.573333 307.2 665.6S467.626667 307.2 665.6 307.2 1024 467.626667 1024 665.6 863.573333 1024 665.6 1024z m0-682.666667c-177.493333 0-324.266667 146.773333-324.266667 324.266667s146.773333 324.266667 324.266667 324.266667 324.266667-146.773333 324.266667-324.266667-146.773333-324.266667-324.266667-324.266667z" fill="#d4237a" p-id="1546"></path><path d="M665.6 853.333333c-61.44 0-116.053333-37.546667-119.466667-88.746666 0-10.24 6.826667-17.066667 17.066667-17.066667s17.066667 6.826667 17.066667 17.066667c3.413333 30.72 40.96 54.613333 85.333333 54.613333 47.786667 0 85.333333-27.306667 85.333333-58.026667 0-37.546667-47.786667-51.2-81.92-58.026666l-10.24-3.413334c-75.093333-13.653333-112.64-44.373333-112.64-92.16 0-51.2 54.613333-95.573333 119.466667-95.573333 61.44 0 116.053333 37.546667 119.466667 88.746667 0 10.24-6.826667 17.066667-17.066667 17.066666s-17.066667-6.826667-17.066667-17.066666c-3.413333-30.72-40.96-54.613333-85.333333-54.613334-47.786667 0-85.333333 27.306667-85.333333 61.44 0 40.96 47.786667 51.2 81.92 58.026667l10.24 3.413333c75.093333 13.653333 112.64 44.373333 112.64 92.16 0 51.2-54.613333 92.16-119.466667 92.16z" fill="#d4237a" p-id="1547"></path><path d="M665.6 870.4c-10.24 0-17.066667-6.826667-17.066667-17.066667V512c0-10.24 6.826667-17.066667 17.066667-17.066667s17.066667 6.826667 17.066667 17.066667v341.333333c0 10.24-6.826667 17.066667-17.066667 17.066667z" fill="#d4237a" p-id="1548"></path></svg>