<?xml version="1.0" standalone="no"?><!DOCTYPE svg PUBLIC "-//W3C//DTD SVG 1.1//EN" "http://www.w3.org/Graphics/SVG/1.1/DTD/svg11.dtd"><svg t="1690690781214" class="icon" viewBox="0 0 1024 1024" version="1.1" xmlns="http://www.w3.org/2000/svg" p-id="15994" xmlns:xlink="http://www.w3.org/1999/xlink" width="200" height="200"><path d="M560 448a16 16 0 0 1 16-16h170.666667a16 16 0 0 1 0 32h-170.666667a16 16 0 0 1-16-16zM560 512a16 16 0 0 1 16-16h170.666667a16 16 0 0 1 0 32h-170.666667a16 16 0 0 1-16-16zM560 576a16 16 0 0 1 16-16h170.666667a16 16 0 0 1 0 32h-170.666667a16 16 0 0 1-16-16z" fill="#1F64C0" p-id="15995"></path><path d="M174.442667 192h633.557333a2.133333 2.133333 0 0 1 2.090667 2.602667L789.333333 288H366.336a2.133333 2.133333 0 0 0-1.856 3.2L490.666667 512l-126.186667 220.8a2.133333 2.133333 0 0 0 1.856 3.2H778.666667l20.757333 93.397333a2.133333 2.133333 0 0 1-2.090667 2.602667H174.442667a2.133333 2.133333 0 0 1-1.834667-3.221333L362.666667 512 172.586667 195.221333A2.133333 2.133333 0 0 1 174.464 192z" fill="#F1F4F9" p-id="15996" data-spm-anchor-id="a313x.7781069.0.i11" class="selected"></path><path d="M163.456 200.725333a12.8 12.8 0 0 1 10.986667-19.392h633.557333a12.8 12.8 0 0 1 12.501333 15.573334L797.888 298.666667h-416.853333l121.92 213.333333-121.898667 213.333333h406.186667l22.613333 101.76a12.8 12.8 0 0 1-12.522667 15.573334H174.442667a12.8 12.8 0 0 1-10.986667-19.392L350.229333 512 163.456 200.725333z m210.304 537.386667zM189.504 202.666667l185.6 309.333333-185.6 309.333333h597.205333l-16.597333-74.666666H366.336a12.8 12.8 0 0 1-11.093333-19.157334L478.357333 512l-123.157333-215.509333a12.8 12.8 0 0 1 11.114667-19.157334H780.8l16.597333-74.666666H189.504z" fill="#1F64C0" p-id="15997"></path></svg>