<?xml version="1.0" standalone="no"?><!DOCTYPE svg PUBLIC "-//W3C//DTD SVG 1.1//EN" "http://www.w3.org/Graphics/SVG/1.1/DTD/svg11.dtd"><svg t="1690690326882" class="icon" viewBox="0 0 1024 1024" version="1.1" xmlns="http://www.w3.org/2000/svg" p-id="9106" xmlns:xlink="http://www.w3.org/1999/xlink" width="200" height="200"><path d="M739.23064 294.233757c-10.820367 0-20.795454 0.673093-30.508347 2.046673-38.336971-92.389889-129.404153-157.37666-235.662896-157.37666-130.711206 0-238.441362 98.328372-253.304202 225.047978-88.503949 14.864797-155.954164 91.800932-155.954164 184.529324 0 100.394612 79.041508 182.306551 178.287558 186.947765 1.594683 0.2348 3.21676 0.395247 4.87797 0.395246h120.111943c18.34962 0 33.224201-14.872624 33.2242-33.222244s-14.876537-33.226157-33.2242-33.226157h-116.137953c-66.389702-0.091963-120.182383-53.939431-120.182383-120.350656 0-66.469925 53.884645-121.264419 120.35457-121.26442l0.062613-0.001956 0.066527 0.001956c18.34962 0 33.224201-14.87458 33.2242-33.2242 0-0.189797-0.02348-0.371767-0.027393-0.561564 0-104.170979 84.447779-188.618758 188.618758-188.618757 86.193125 0 158.806984 57.844938 181.332131 136.810136a33.016794 33.016794 0 0 0 4.275316 10.517084c0.007827 0.009783 0.01174 0.021523 0.01761 0.031306a33.926644 33.926644 0 0 0 1.598597 2.328434 33.282901 33.282901 0 0 0 12.522667 10.200103l0.256323 0.125227c0.73375 0.336547 1.48511 0.637873 2.244297 0.92159l0.495037 0.18197c0.741577 0.260237 1.492937 0.496993 2.257993 0.708313 0.1761 0.048917 0.360027 0.091963 0.54004 0.138924 0.778753 0.201537 1.571203 0.38155 2.37148 0.526343 0.115443 0.019567 0.230887 0.033263 0.348287 0.05283 1.806003 0.303283 3.65114 0.49895 5.543237 0.49895 1.125083 0 2.228643-0.078267 3.32242-0.195667 0.056743-0.003913 0.113487-0.01174 0.168273-0.01761a32.549151 32.549151 0 0 0 3.050443-0.465686c0.242627-0.04696 0.477427-0.113487 0.714184-0.16436 0.485253-0.11153 0.970507-0.21719 1.445977-0.34633l0.009783 0.031306a153.964234 153.964234 0 0 1 43.821508-6.3396c85.181529 0 154.232297 69.054682 154.232296 154.234254 0 85.062172-68.857058 154.03076-153.87227 154.226427v0.02348h-82.307185c-18.34962 0-33.226157 14.876537-33.226157 33.226157s14.878494 33.224201 33.226157 33.224201h82.307185c0.21132 0 0.414813-0.02935 0.62809-0.033264 121.405299-0.618307 219.635838-99.214742 219.635839-220.772661 0.003913-121.943383-98.848846-220.794185-220.786359-220.794185z" fill="#e6e6e6" p-id="9107"></path><path d="M663.603515 590.77638c0-9.17481-3.717667-17.482817-9.73246-23.493697l-116.589943-116.591899a32.858304 32.858304 0 0 0-2.449746-2.211034c-0.34046-0.279803-0.69853-0.52243-1.050731-0.78658-0.51656-0.389377-1.019423-0.78658-1.559463-1.14465-0.44612-0.297413-0.90985-0.555693-1.365753-0.831583-0.473513-0.283717-0.93333-0.577217-1.42054-0.837454-0.477427-0.254367-0.964637-0.4696-1.451847-0.69853-0.495037-0.2348-0.982247-0.48134-1.492937-0.69266-0.47547-0.197623-0.960723-0.356113-1.44402-0.5283-0.538083-0.195667-1.070297-0.403073-1.622076-0.56939-0.485253-0.144793-0.97442-0.25241-1.463587-0.37568-0.56352-0.142837-1.117257-0.297413-1.688603-0.4109-0.559607-0.11153-1.128997-0.178057-1.696431-0.260236-0.50482-0.072397-1.00377-0.168273-1.516416-0.21719a33.963821 33.963821 0 0 0-3.091534-0.15849c-0.060657 0-0.119357-0.007827-0.180013-0.007827h-0.003913-0.00587c-0.086093 0-0.168273 0.01174-0.25241 0.01174-1.005727 0.007827-2.011453 0.05283-3.01718 0.15262-0.536127 0.050873-1.0566 0.150663-1.588814 0.22893-0.538083 0.078267-1.082037 0.138923-1.618163 0.24654-0.602653 0.119357-1.18574 0.283717-1.774697 0.43438-0.45786 0.1174-0.917677 0.21719-1.371623 0.3522-0.588957 0.178057-1.158347 0.397203-1.73165 0.606567-0.444163 0.162403-0.894197 0.30524-1.33249 0.48721-0.555693 0.230887-1.089863 0.496993-1.629904 0.75723-0.438293 0.209363-0.8805 0.403073-1.310966 0.632003-0.549823 0.2935-1.072253 0.62222-1.600554 0.94507-0.39329 0.24067-0.796363 0.461773-1.181826 0.720054-0.635917 0.42264-1.240527 0.890283-1.84318 1.354013-0.254367 0.197623-0.518517 0.36981-0.767014 0.57526-0.860933 0.7044-1.69056 1.44402-2.475183 2.2306l-116.589943 116.591899a33.106801 33.106801 0 0 0-9.734417 23.493697c0 18.351577 14.878494 33.224201 33.224201 33.222245a33.106801 33.106801 0 0 0 23.503481-9.740287l59.874001-59.875958v297.47204a33.098974 33.098974 0 0 0 9.73246 23.505437c12.9727 12.974657 34.008824 12.976614 46.987395 0.001957a33.124411 33.124411 0 0 0 9.73246-23.495654V554.392163l59.868131 59.868131a33.106801 33.106801 0 0 0 23.501524 9.740287c18.347664 0 33.222244-14.872624 33.222244-33.224201z" fill="#e6e6e6" p-id="9108"></path></svg>